<svg width="137" height="67" viewBox="0 0 137 67" fill="none" xmlns="http://www.w3.org/2000/svg">
<path d="M31.9887 8.69127V28.4901C31.9887 30.3433 30.4864 31.8456 28.6332 31.8456C26.7801 31.8456 25.2778 30.3433 25.2778 28.4901V19.9596L14.3166 34.0882H37.1603C39.3694 34.0882 41.1603 35.8791 41.1603 38.0882V51.3635C41.1603 52.846 42.362 54.0478 43.8445 54.0478C47.097 54.0478 50.6072 53.7349 52.8878 51.416C55.8644 48.3894 56.2379 44.0957 55.2518 40.2895C53.4077 33.1711 44.9666 31.8456 37.6132 31.8456C35.7554 31.8456 34.2256 30.3395 34.2256 28.4816C34.2256 26.6237 35.7317 25.1176 37.5896 25.1176H37.7843C45.0601 25.1176 53.0612 25.4478 58.1281 30.6692C68.8014 41.6679 60.2376 61 48.7659 61H38.2256C36.0165 61 34.2256 59.2091 34.2256 57V40.8162H31.9887V48.0012C31.9887 49.8543 30.4864 51.3566 28.6332 51.3566C26.7801 51.3566 25.2778 49.8543 25.2778 48.0012V40.8162H6.16274C3.66116 40.8162 2.2584 37.9346 3.80151 35.9656L26.6274 6.84071C28.386 4.59683 31.9887 5.84038 31.9887 8.69127Z" fill="white"/>
<path d="M128.777 31.9578C129.931 34.7439 130.665 37.6802 130.959 40.6705L70.0406 40.6705C70.3352 37.6802 71.069 34.7439 72.2231 31.9578C73.7612 28.2444 76.0157 24.8704 78.8578 22.0283C81.6999 19.1862 85.0739 16.9317 88.7873 15.3936C92.5007 13.8554 96.4807 13.0638 100.5 13.0638C104.519 13.0638 108.499 13.8554 112.213 15.3935C115.926 16.9317 119.3 19.1862 122.142 22.0283C124.984 24.8704 127.239 28.2444 128.777 31.9578Z" stroke="white" stroke-width="6"/>
<path d="M78.3149 22.688L92.3991 35.9355" stroke="white" stroke-width="6"/>
<path d="M123.681 23.5268L109.482 36.6517" stroke="white" stroke-width="6"/>
<path d="M114.405 43.6705C113.681 41.9386 112.797 40.3403 111.775 38.9172C110.221 36.7547 108.376 35.0394 106.346 33.8691C104.316 32.6987 102.14 32.0964 99.9422 32.0964C97.7447 32.0964 95.5687 32.6987 93.5385 33.8691C91.5083 35.0394 89.6636 36.7547 88.1097 38.9172C87.0872 40.3403 86.2037 41.9386 85.4795 43.6705H114.405Z" fill="white"/>
<path d="M66.22 51.76C65.77 51.76 65.4 51.63 65.11 51.37C64.83 51.1 64.69 50.77 64.69 50.38C64.69 49.98 64.83 49.65 65.11 49.39C65.4 49.12 65.77 48.985 66.22 48.985C66.66 48.985 67.02 49.12 67.3 49.39C67.59 49.65 67.735 49.98 67.735 50.38C67.735 50.77 67.59 51.1 67.3 51.37C67.02 51.63 66.66 51.76 66.22 51.76ZM67.495 52.63V61H64.93V52.63H67.495ZM80.0338 52.54C81.0738 52.54 81.8988 52.855 82.5088 53.485C83.1288 54.115 83.4388 54.99 83.4388 56.11V61H80.8888V56.455C80.8888 55.915 80.7438 55.5 80.4538 55.21C80.1738 54.91 79.7838 54.76 79.2838 54.76C78.7838 54.76 78.3888 54.91 78.0988 55.21C77.8188 55.5 77.6788 55.915 77.6788 56.455V61H75.1288V56.455C75.1288 55.915 74.9838 55.5 74.6938 55.21C74.4138 54.91 74.0238 54.76 73.5238 54.76C73.0238 54.76 72.6288 54.91 72.3388 55.21C72.0588 55.5 71.9188 55.915 71.9188 56.455V61H69.3538V52.63H71.9188V53.68C72.1788 53.33 72.5188 53.055 72.9388 52.855C73.3588 52.645 73.8338 52.54 74.3638 52.54C74.9938 52.54 75.5538 52.675 76.0438 52.945C76.5438 53.215 76.9338 53.6 77.2138 54.1C77.5038 53.64 77.8988 53.265 78.3988 52.975C78.8988 52.685 79.4438 52.54 80.0338 52.54ZM93.1227 56.68C93.1227 56.92 93.1077 57.17 93.0777 57.43H87.2727C87.3127 57.95 87.4777 58.35 87.7677 58.63C88.0677 58.9 88.4327 59.035 88.8627 59.035C89.5027 59.035 89.9477 58.765 90.1977 58.225H92.9277C92.7877 58.775 92.5327 59.27 92.1627 59.71C91.8027 60.15 91.3477 60.495 90.7977 60.745C90.2477 60.995 89.6327 61.12 88.9527 61.12C88.1327 61.12 87.4027 60.945 86.7627 60.595C86.1227 60.245 85.6227 59.745 85.2627 59.095C84.9027 58.445 84.7227 57.685 84.7227 56.815C84.7227 55.945 84.8977 55.185 85.2477 54.535C85.6077 53.885 86.1077 53.385 86.7477 53.035C87.3877 52.685 88.1227 52.51 88.9527 52.51C89.7627 52.51 90.4827 52.68 91.1127 53.02C91.7427 53.36 92.2327 53.845 92.5827 54.475C92.9427 55.105 93.1227 55.84 93.1227 56.68ZM90.4977 56.005C90.4977 55.565 90.3477 55.215 90.0477 54.955C89.7477 54.695 89.3727 54.565 88.9227 54.565C88.4927 54.565 88.1277 54.69 87.8277 54.94C87.5377 55.19 87.3577 55.545 87.2877 56.005H90.4977ZM99.5759 52.54C100.556 52.54 101.336 52.86 101.916 53.5C102.506 54.13 102.801 55 102.801 56.11V61H100.251V56.455C100.251 55.895 100.106 55.46 99.8159 55.15C99.5259 54.84 99.1359 54.685 98.6459 54.685C98.1559 54.685 97.7659 54.84 97.4759 55.15C97.1859 55.46 97.0409 55.895 97.0409 56.455V61H94.4759V52.63H97.0409V53.74C97.3009 53.37 97.6509 53.08 98.0909 52.87C98.5309 52.65 99.0259 52.54 99.5759 52.54ZM107.988 61.12C107.258 61.12 106.608 60.995 106.038 60.745C105.468 60.495 105.018 60.155 104.688 59.725C104.358 59.285 104.173 58.795 104.133 58.255H106.668C106.698 58.545 106.833 58.78 107.073 58.96C107.313 59.14 107.608 59.23 107.958 59.23C108.278 59.23 108.523 59.17 108.693 59.05C108.873 58.92 108.963 58.755 108.963 58.555C108.963 58.315 108.838 58.14 108.588 58.03C108.338 57.91 107.933 57.78 107.373 57.64C106.773 57.5 106.273 57.355 105.873 57.205C105.473 57.045 105.128 56.8 104.838 56.47C104.548 56.13 104.403 55.675 104.403 55.105C104.403 54.625 104.533 54.19 104.793 53.8C105.063 53.4 105.453 53.085 105.963 52.855C106.483 52.625 107.098 52.51 107.808 52.51C108.858 52.51 109.683 52.77 110.283 53.29C110.893 53.81 111.243 54.5 111.333 55.36H108.963C108.923 55.07 108.793 54.84 108.573 54.67C108.363 54.5 108.083 54.415 107.733 54.415C107.433 54.415 107.203 54.475 107.043 54.595C106.883 54.705 106.803 54.86 106.803 55.06C106.803 55.3 106.928 55.48 107.178 55.6C107.438 55.72 107.838 55.84 108.378 55.96C108.998 56.12 109.503 56.28 109.893 56.44C110.283 56.59 110.623 56.84 110.913 57.19C111.213 57.53 111.368 57.99 111.378 58.57C111.378 59.06 111.238 59.5 110.958 59.89C110.688 60.27 110.293 60.57 109.773 60.79C109.263 61.01 108.668 61.12 107.988 61.12ZM114.238 51.76C113.788 51.76 113.418 51.63 113.128 51.37C112.848 51.1 112.708 50.77 112.708 50.38C112.708 49.98 112.848 49.65 113.128 49.39C113.418 49.12 113.788 48.985 114.238 48.985C114.678 48.985 115.038 49.12 115.318 49.39C115.608 49.65 115.753 49.98 115.753 50.38C115.753 50.77 115.608 51.1 115.318 51.37C115.038 51.63 114.678 51.76 114.238 51.76ZM115.513 52.63V61H112.948V52.63H115.513ZM121.181 61.12C120.361 61.12 119.621 60.945 118.961 60.595C118.311 60.245 117.796 59.745 117.416 59.095C117.046 58.445 116.861 57.685 116.861 56.815C116.861 55.955 117.051 55.2 117.431 54.55C117.811 53.89 118.331 53.385 118.991 53.035C119.651 52.685 120.391 52.51 121.211 52.51C122.031 52.51 122.771 52.685 123.431 53.035C124.091 53.385 124.611 53.89 124.991 54.55C125.371 55.2 125.561 55.955 125.561 56.815C125.561 57.675 125.366 58.435 124.976 59.095C124.596 59.745 124.071 60.245 123.401 60.595C122.741 60.945 122.001 61.12 121.181 61.12ZM121.181 58.9C121.671 58.9 122.086 58.72 122.426 58.36C122.776 58 122.951 57.485 122.951 56.815C122.951 56.145 122.781 55.63 122.441 55.27C122.111 54.91 121.701 54.73 121.211 54.73C120.711 54.73 120.296 54.91 119.966 55.27C119.636 55.62 119.471 56.135 119.471 56.815C119.471 57.485 119.631 58 119.951 58.36C120.281 58.72 120.691 58.9 121.181 58.9ZM132.022 52.54C133.002 52.54 133.782 52.86 134.362 53.5C134.952 54.13 135.247 55 135.247 56.11V61H132.697V56.455C132.697 55.895 132.552 55.46 132.262 55.15C131.972 54.84 131.582 54.685 131.092 54.685C130.602 54.685 130.212 54.84 129.922 55.15C129.632 55.46 129.487 55.895 129.487 56.455V61H126.922V52.63H129.487V53.74C129.747 53.37 130.097 53.08 130.537 52.87C130.977 52.65 131.472 52.54 132.022 52.54Z" fill="white"/>
</svg>
