<svg id="SvgjsSvg1001" width="288" height="288" xmlns="http://www.w3.org/2000/svg" version="1.1" xmlns:xlink="http://www.w3.org/1999/xlink" xmlns:svgjs="http://svgjs.com/svgjs"><defs id="SvgjsDefs1002"></defs><g id="SvgjsG1008" transform="matrix(1,0,0,1,0,0)"><svg xmlns="http://www.w3.org/2000/svg" width="288" height="288" fill="none" viewBox="0 0 105 48"><path fill="#ff0000" d="M24.8346 8.69127V22.1185C24.8346 23.5572 23.6683 24.7235 22.2296 24.7235C20.7909 24.7235 19.6245 23.5572 19.6245 22.1185V15.4957L11.1148 26.4646H27.955C30.1642 26.4646 31.955 28.2555 31.955 30.4646V39.8764C31.955 41.0273 32.888 41.9603 34.039 41.9603C36.564 41.9603 39.2892 41.7174 41.0598 39.9171C43.3707 37.5674 43.6607 34.234 42.8951 31.279C41.4634 25.7526 34.9101 24.7235 29.2013 24.7235C27.7589 24.7235 26.5713 23.5543 26.5713 22.1119C26.5713 20.6695 27.7406 19.5002 29.1829 19.5002H29.3341C34.9827 19.5002 41.1944 19.7566 45.1281 23.8103C53.4144 32.3492 46.7658 47.3577 37.8597 47.3577H30.5713C28.3622 47.3577 26.5713 45.5669 26.5713 43.3577V31.6879H24.8346V37.266C24.8346 38.7047 23.6683 39.871 22.2296 39.871C20.7909 39.871 19.6245 38.7047 19.6245 37.266V31.6879H6.16274C3.66116 31.6879 2.2584 28.8063 3.80151 26.8373L19.4734 6.8407C21.232 4.59683 24.8346 5.84038 24.8346 8.69127Z" class="color333 svgShape"></path><path stroke="#ff0000" stroke-width="4" d="M100.281 24.6847C101.233 26.9831 101.822 29.4113 102.03 31.8823 102.015 31.8923 101.989 31.9039 101.949 31.9039L54.0982 31.9039C54.0589 31.9039 54.0327 31.8923 54.018 31.8823 54.2261 29.4113 54.8148 26.9831 55.7668 24.6847 56.9775 21.7619 58.752 19.1061 60.989 16.8691 63.2261 14.6321 65.8818 12.8575 68.8046 11.6469 71.7275 10.4362 74.8601 9.81306 78.0238 9.81306 81.1874 9.81306 84.3201 10.4362 87.243 11.6469 90.1658 12.8575 92.8215 14.6321 95.0586 16.8691 97.2956 19.1061 99.0701 21.7619 100.281 24.6847zM60.8003 17.614L71.7346 27.8987M96.0204 18.2652L84.9973 28.4548" fill="#ffffff" class="color000 svgShape colorStroke333 svgStroke"></path><path fill="#ff0000" d="M88.819 33.9039C88.2567 32.5593 87.5709 31.3184 86.777 30.2136 85.5706 28.5348 84.1385 27.203 82.5623 26.2944 80.9861 25.3859 79.2968 24.9182 77.5908 24.9182 75.8847 24.9182 74.1954 25.3859 72.6192 26.2944 71.0431 27.203 69.6109 28.5348 68.4046 30.2136 67.6107 31.3184 66.9248 32.5593 66.3625 33.9039H88.819zM51.4102 40.1842C51.0609 40.1842 50.7736 40.0833 50.5485 39.8814 50.3311 39.6718 50.2224 39.4156 50.2224 39.1128 50.2224 38.8023 50.3311 38.5461 50.5485 38.3442 50.7736 38.1346 51.0609 38.0298 51.4102 38.0298 51.7518 38.0298 52.0313 38.1346 52.2487 38.3442 52.4738 38.5461 52.5864 38.8023 52.5864 39.1128 52.5864 39.4156 52.4738 39.6718 52.2487 39.8814 52.0313 40.0833 51.7518 40.1842 51.4102 40.1842zM52.4001 40.8596V47.3577H50.4087V40.8596H52.4001zM62.1347 40.7898C62.9421 40.7898 63.5826 41.0343 64.0562 41.5234 64.5375 42.0125 64.7782 42.6918 64.7782 43.5613V47.3577H62.7985V43.8292C62.7985 43.41 62.6859 43.0878 62.4608 42.8626 62.2434 42.6297 61.9406 42.5133 61.5524 42.5133 61.1642 42.5133 60.8576 42.6297 60.6324 42.8626 60.4151 43.0878 60.3064 43.41 60.3064 43.8292V47.3577H58.3267V43.8292C58.3267 43.41 58.2141 43.0878 57.9889 42.8626 57.7716 42.6297 57.4688 42.5133 57.0806 42.5133 56.6924 42.5133 56.3858 42.6297 56.1606 42.8626 55.9432 43.0878 55.8346 43.41 55.8346 43.8292V47.3577H53.8432V40.8596H55.8346V41.6748C56.0364 41.4031 56.3004 41.1896 56.6264 41.0343 56.9525 40.8713 57.3213 40.7898 57.7327 40.7898 58.2219 40.7898 58.6566 40.8946 59.037 41.1042 59.4252 41.3138 59.728 41.6127 59.9454 42.0009 60.1705 41.6437 60.4772 41.3526 60.8653 41.1275 61.2535 40.9023 61.6766 40.7898 62.1347 40.7898zM72.2963 44.0039C72.2963 44.1902 72.2847 44.3843 72.2614 44.5861H67.7547C67.7857 44.9898 67.9138 45.3004 68.139 45.5178 68.3719 45.7274 68.6552 45.8322 68.9891 45.8322 69.4859 45.8322 69.8314 45.6226 70.0255 45.2033H72.145C72.0363 45.6303 71.8383 46.0146 71.551 46.3562 71.2716 46.6978 70.9183 46.9657 70.4913 47.1598 70.0643 47.3538 69.5869 47.4509 69.0589 47.4509 68.4223 47.4509 67.8556 47.315 67.3587 47.0433 66.8619 46.7716 66.4737 46.3834 66.1942 45.8788 65.9147 45.3741 65.775 44.7841 65.775 44.1087 65.775 43.4332 65.9108 42.8432 66.1825 42.3386 66.462 41.834 66.8502 41.4458 67.3471 41.1741 67.8439 40.9023 68.4146 40.7665 69.0589 40.7665 69.6878 40.7665 70.2468 40.8984 70.7359 41.1624 71.225 41.4264 71.6054 41.8029 71.8771 42.292 72.1566 42.7811 72.2963 43.3517 72.2963 44.0039zM70.2584 43.4798C70.2584 43.1382 70.142 42.8665 69.909 42.6647 69.6761 42.4628 69.385 42.3619 69.0356 42.3619 68.7018 42.3619 68.4184 42.4589 68.1855 42.653 67.9604 42.8471 67.8207 43.1227 67.7663 43.4798H70.2584zM77.3063 40.7898C78.0671 40.7898 78.6727 41.0382 79.123 41.5351 79.581 42.0242 79.81 42.6996 79.81 43.5613V47.3577H77.8303V43.8292C77.8303 43.3944 77.7178 43.0567 77.4926 42.816 77.2675 42.5754 76.9647 42.455 76.5843 42.455 76.2039 42.455 75.9011 42.5754 75.676 42.816 75.4508 43.0567 75.3382 43.3944 75.3382 43.8292V47.3577H73.3469V40.8596H75.3382V41.7214C75.5401 41.4341 75.8118 41.209 76.1534 41.046 76.495 40.8752 76.8793 40.7898 77.3063 40.7898zM83.8373 47.4509C83.2706 47.4509 82.766 47.3538 82.3234 47.1598 81.8809 46.9657 81.5316 46.7017 81.2754 46.3679 81.0192 46.0263 80.8755 45.6459 80.8445 45.2266H82.8125C82.8358 45.4518 82.9406 45.6342 83.127 45.774 83.3133 45.9137 83.5423 45.9836 83.814 45.9836 84.0625 45.9836 84.2527 45.937 84.3847 45.8438 84.5244 45.7429 84.5943 45.6148 84.5943 45.4595 84.5943 45.2732 84.4972 45.1374 84.3031 45.052 84.1091 44.9588 83.7946 44.8579 83.3599 44.7492 82.8941 44.6405 82.5059 44.5279 82.1953 44.4115 81.8848 44.2872 81.617 44.097 81.3918 43.8408 81.1667 43.5769 81.0541 43.2236 81.0541 42.7811 81.0541 42.4085 81.155 42.0707 81.3569 41.768 81.5665 41.4574 81.8693 41.2129 82.2652 41.0343 82.6689 40.8557 83.1464 40.7665 83.6976 40.7665 84.5128 40.7665 85.1533 40.9683 85.6191 41.372 86.0926 41.7757 86.3644 42.3114 86.4342 42.9791H84.5943C84.5632 42.7539 84.4623 42.5754 84.2915 42.4434 84.1285 42.3114 83.9111 42.2454 83.6394 42.2454 83.4065 42.2454 83.2279 42.292 83.1037 42.3852 82.9795 42.4706 82.9174 42.5909 82.9174 42.7462 82.9174 42.9325 83.0144 43.0722 83.2085 43.1654 83.4103 43.2586 83.7209 43.3517 84.1401 43.4449 84.6215 43.5691 85.0135 43.6933 85.3163 43.8175 85.6191 43.934 85.883 44.1281 86.1082 44.3998 86.3411 44.6638 86.4614 45.0209 86.4692 45.4712 86.4692 45.8516 86.3605 46.1932 86.1431 46.496 85.9335 46.791 85.6268 47.0239 85.2231 47.1947 84.8272 47.3655 84.3653 47.4509 83.8373 47.4509zM88.689 40.1842C88.3396 40.1842 88.0524 40.0833 87.8272 39.8814 87.6098 39.6718 87.5012 39.4156 87.5012 39.1128 87.5012 38.8023 87.6098 38.5461 87.8272 38.3442 88.0524 38.1346 88.3396 38.0298 88.689 38.0298 89.0306 38.0298 89.3101 38.1346 89.5275 38.3442 89.7526 38.5461 89.8652 38.8023 89.8652 39.1128 89.8652 39.4156 89.7526 39.6718 89.5275 39.8814 89.3101 40.0833 89.0306 40.1842 88.689 40.1842zM89.6788 40.8596V47.3577H87.6875V40.8596H89.6788zM94.0799 47.4509C93.4433 47.4509 92.8688 47.315 92.3564 47.0433 91.8517 46.7716 91.4519 46.3834 91.1569 45.8788 90.8696 45.3741 90.726 44.7841 90.726 44.1087 90.726 43.441 90.8735 42.8549 91.1685 42.3502 91.4635 41.8378 91.8673 41.4458 92.3797 41.1741 92.892 40.9023 93.4666 40.7665 94.1032 40.7665 94.7398 40.7665 95.3143 40.9023 95.8267 41.1741 96.3391 41.4458 96.7428 41.8378 97.0378 42.3502 97.3328 42.8549 97.4803 43.441 97.4803 44.1087 97.4803 44.7763 97.3289 45.3664 97.0261 45.8788 96.7311 46.3834 96.3235 46.7716 95.8034 47.0433 95.291 47.315 94.7165 47.4509 94.0799 47.4509zM94.0799 45.7274C94.4603 45.7274 94.7825 45.5876 95.0464 45.3081 95.3182 45.0287 95.454 44.6288 95.454 44.1087 95.454 43.5885 95.322 43.1887 95.0581 42.9092 94.8019 42.6297 94.4836 42.49 94.1032 42.49 93.715 42.49 93.3928 42.6297 93.1366 42.9092 92.8804 43.1809 92.7523 43.5808 92.7523 44.1087 92.7523 44.6288 92.8765 45.0287 93.125 45.3081 93.3811 45.5876 93.6995 45.7274 94.0799 45.7274zM102.496 40.7898C103.257 40.7898 103.863 41.0382 104.313 41.5351 104.771 42.0242 105 42.6996 105 43.5613V47.3577H103.02V43.8292C103.02 43.3944 102.908 43.0567 102.683 42.816 102.457 42.5754 102.155 42.455 101.774 42.455 101.394 42.455 101.091 42.5754 100.866 42.816 100.641 43.0567 100.528 43.3944 100.528 43.8292V47.3577H98.5368V40.8596H100.528V41.7214C100.73 41.4341 101.002 41.209 101.343 41.046 101.685 40.8752 102.069 40.7898 102.496 40.7898z" class="color333 svgShape"></path></svg></g></svg>